<svg id="Layer_1" data-name="Layer 1" xmlns="http://www.w3.org/2000/svg" viewBox="0 0 148.67 148.67"><defs><style>.cls-1{fill:#5fa7f5;}.cls-2{fill:#fff;}</style></defs><rect class="cls-1" width="148.67" height="148.67" rx="25.04"/><polygon class="cls-2" points="113.52 77.92 113.52 77.92 113.52 77.92 113.52 77.92"/><path class="cls-2" d="M450.5,331.51a.7.7,0,0,0-.09-.53l-3.39-5.4a.7.7,0,0,0-.44-.31.72.72,0,0,0-.52.09l-7.44,4.73a1.1,1.1,0,0,1-1.11,0,1.09,1.09,0,0,1-.56-1V315.46a11.74,11.74,0,0,0-4.28-9.09l-9.54-7.89a1.38,1.38,0,0,1-.51-1.08V285.45a.49.49,0,0,0-.5-.49h-6.84a.49.49,0,0,0-.49.49v3.13a1.4,1.4,0,0,1-2.29,1.08L397,276.87a16.74,16.74,0,0,0-21.29,0l-35.56,29.37a12.12,12.12,0,0,0-4.42,9.37v12.1a1.74,1.74,0,0,1-.89,1.53,1.77,1.77,0,0,1-1.78,0l-6.42-3.91a.48.48,0,0,0-.26-.07.47.47,0,0,0-.41.22l-3.82,5.84a.38.38,0,0,0,0,.28.38.38,0,0,0,.16.23l12.83,7.84a1.72,1.72,0,0,1,.81,1.34,50.55,50.55,0,0,0,100.87-.16,1.39,1.39,0,0,1,.66-1.09l12.75-7.8A.73.73,0,0,0,450.5,331.51Zm-101.22,22a1.76,1.76,0,0,1-1.23.49,1.58,1.58,0,0,1-.38,0,1.75,1.75,0,0,1-1.26-1.07,42.63,42.63,0,0,1-2.43-9.47,1.74,1.74,0,0,1,.42-1.4,1.79,1.79,0,0,1,1.34-.62h11.7a1.76,1.76,0,0,1,1.22,3Zm11,17.37a1.75,1.75,0,0,1-1.14-.41,42.66,42.66,0,0,1-6.69-6.93,1.81,1.81,0,0,1,.18-2.4l20-19.34a1.38,1.38,0,0,1,1-.4H386.8a1.76,1.76,0,0,1,1.23,3l-26.47,25.95A1.77,1.77,0,0,1,360.3,370.88Zm34.55,7.48a.69.69,0,0,1-.3,1.15,33.12,33.12,0,0,1-8.22.76,42.21,42.21,0,0,1-16.7-3.44,1.74,1.74,0,0,1-1-1.29,1.78,1.78,0,0,1,.5-1.6l9.62-9.43a1.75,1.75,0,0,1,2.48,0Zm20-9.09a43,43,0,0,1-9.77,6.61,1.79,1.79,0,0,1-.79.18,1.76,1.76,0,0,1-1.28-.54L386.8,359.05a1.74,1.74,0,0,1-.51-1.24,1.76,1.76,0,0,1,.53-1.24l8-7.83a1.75,1.75,0,0,1,2.48,0L415,366.69a1.85,1.85,0,0,1,.52,1.32A1.77,1.77,0,0,1,414.88,369.27Zm13.8-25.84a42.33,42.33,0,0,1-6.1,16.74,1.76,1.76,0,0,1-1.3.82h-.2a1.79,1.79,0,0,1-1.27-.53L404,344.39a1.72,1.72,0,0,1-.37-1.91,1.74,1.74,0,0,1,1.62-1.08h21.68a1.79,1.79,0,0,1,1.35.62A1.77,1.77,0,0,1,428.68,343.43Zm.43-12.52a2.3,2.3,0,0,1-1.47,2.12,2.5,2.5,0,0,1-2.69-.5l-4.82-4.74c-3.21-3.16-6.83-6.72-9-8.84a61.53,61.53,0,0,0-5.37,5l7.79,7.76a1.08,1.08,0,0,1,.23,1.18,1.07,1.07,0,0,1-1,.67H393.9a1.43,1.43,0,0,1-1-.41l-14.83-15.1a.8.8,0,0,0-.57-.24,1,1,0,0,0-.57.23l-4.43,4.37a.76.76,0,0,0-.24.57.79.79,0,0,0,.23.57L379.9,331a1.5,1.5,0,0,1-1.06,2.54H345.19a1.63,1.63,0,0,1-1.64-1.64v-16.3a4.3,4.3,0,0,1,1.57-3.34l35.55-29.38a8.91,8.91,0,0,1,11.32,0l35.37,29.23a4.81,4.81,0,0,1,1.76,3.73Z" transform="translate(-311.96 -256.24)"/></svg>