<svg id="Layer_1" data-name="Layer 1" xmlns="http://www.w3.org/2000/svg" viewBox="0 0 200.55 26.48"><defs><style>.cls-1{fill:#1c2d36;}</style></defs><path class="cls-1" d="M333.66,286h5.58v25.68h-8l-11.26-18.43h-.64v18.43h-5.59V286h7.55v0h.5L333,304.44h.66Z" transform="translate(-313.71 -285.21)"/><path class="cls-1" d="M363.08,302.69H346.66c.38,2.75,2,4.12,5.64,4.12,3.34,0,5-.93,5.5-2.28h5.41c-.57,4.42-4.15,7.16-10.91,7.16-7.06,0-11.07-3.54-11.07-10.4s4.12-10.4,11.07-10.4a11.9,11.9,0,0,1,7,1.95h0c4,2.68,4.34,7,4,9.86ZM346.87,299h10.87c-.45-1.54-1.46-3.22-5.44-3.22C349.21,295.78,347.52,296.92,346.87,299Z" transform="translate(-313.71 -285.21)"/><path class="cls-1" d="M385,305.59c0,5.1-3.66,6.1-10,6.1-4.65,0-7.85-.84-9.5-2.51a5.43,5.43,0,0,1-1.4-4.21v-.4h5.73v.18c0,1.76,1.31,2.54,5,2.54,2.23,0,4.37-.28,4.37-1.62,0-1.54-2-1.84-4.21-2.1l-.87-.11c-5.92-.78-9.59-2.09-9.59-6.19,0-2.88,1.66-6.3,9.56-6.3,8.53,0,10.32,3.77,10.32,6.94v.18H378.8v-.18c0-1.62-1.38-2.48-4.64-2.48s-3.78,1.13-3.78,1.76c0,.91.64,1.42,4.23,1.95l.46.07C379.74,299.91,385,300.7,385,305.59Z" transform="translate(-313.71 -285.21)"/><path class="cls-1" d="M393.72,303.18h0v.41c0,3,1.35,2.56,6.68,2.28v5.44s-1.1.38-6.68.38-5.59-4.59-5.59-7.58v-8.25h-2.75v-4.7h2.75v-6h5.59v6h6.68v4.7h-6.68Z" transform="translate(-313.71 -285.21)"/><path class="cls-1" d="M426.79,303.71c0,6.38-4.25,8-11.76,8-12.66,0-12.66-7-12.66-9.49h5.74c0,3.88,3.41,4.48,6.74,4.48,4.23,0,6-1,6-3,0-1.75-1.75-2.05-6.79-2.8-7.67-1.13-11.12-2.72-11.12-7.42,0-3.63,2.68-7.81,11.06-7.81,10,0,12,5.58,12,9.49h-5.87c0-1.78-.79-4.43-6.1-4.43-4.32,0-5.31,1.56-5.31,2.8s1.52,1.87,5.81,2.57C420.24,297.06,426.79,297.9,426.79,303.71Z" transform="translate(-313.71 -285.21)"/><path class="cls-1" d="M445.43,294.12v-3H451v20.6h-5.58v-2.87h-.18c-1.39,1.79-3.74,2.87-7.61,2.87-8.64,0-9.62-7.52-9.62-10.3,0-3,.92-10.3,9.63-10.3,3.81,0,6.14,1.2,7.54,3Zm-.35,7.27c0-2.79-1-5.5-5.81-5.5-5.35,0-5.91,3.9-5.91,5.5s.59,5.5,5.9,5.5C444.09,306.89,445.08,304.51,445.08,301.39Z" transform="translate(-313.71 -285.21)"/><path class="cls-1" d="M476.26,291.25l-7.94,20.44h-8.51l-7.93-20.44h5.9l6,15.46h.57l6-15.46Z" transform="translate(-313.71 -285.21)"/><path class="cls-1" d="M496.85,302.69H480.42c.39,2.75,2,4.12,5.64,4.12,3.34,0,5-.93,5.51-2.28H497c-.57,4.42-4.14,7.16-10.91,7.16-7.05,0-11.06-3.54-11.06-10.4s4.11-10.4,11.06-10.4a12,12,0,0,1,7,1.95h0c4,2.68,4.33,7,4,9.86ZM480.64,299h10.87c-.46-1.54-1.47-3.22-5.45-3.22C483,295.78,481.28,296.92,480.64,299Z" transform="translate(-313.71 -285.21)"/><path class="cls-1" d="M514.26,291.62l-.89,5.27a14.91,14.91,0,0,0-3.7-.46c-4.14,0-5.38,3.24-5.38,6v9.23h-5.58V291.1h5.58v3h.35c1.15-2,2.42-3,6-3A16,16,0,0,1,514.26,291.62Z" transform="translate(-313.71 -285.21)"/></svg>