<svg width="21" height="19" viewBox="0 0 21 19" fill="none" xmlns="http://www.w3.org/2000/svg">
<path d="M9.93573 0.956291C10.0891 0.503524 10.7295 0.503524 10.8829 0.956291L12.5937 6.00666C12.8 6.61562 13.3715 7.02538 14.0144 7.02538H19.4592C19.9486 7.02538 20.1466 7.6558 19.7451 7.93561L15.4129 10.9545C14.8651 11.3363 14.6356 12.0341 14.8498 12.6665L16.5213 17.6007C16.6761 18.0577 16.1578 18.4472 15.7619 18.1713L11.2669 15.039C10.7515 14.6798 10.067 14.6798 9.55169 15.039L5.05668 18.1713C4.6608 18.4472 4.14244 18.0577 4.29725 17.6007L5.96877 12.6665C6.183 12.0341 5.95346 11.3363 5.40568 10.9545L1.07347 7.9356C0.671948 7.6558 0.869937 7.02538 1.35934 7.02538H6.80416C7.44712 7.02538 8.01857 6.61562 8.22486 6.00666L9.93573 0.956291Z" stroke="#1C2D36"/>
</svg>
